<?xml version="1.0" standalone="no"?>
<!DOCTYPE svg PUBLIC "-//W3C//DTD SVG 20010904//EN"
 "http://www.w3.org/TR/2001/REC-SVG-20010904/DTD/svg10.dtd">
<svg version="1.0" xmlns="http://www.w3.org/2000/svg"
 width="300.000000pt" height="336.000000pt" viewBox="0 0 300.000000 336.000000"
 preserveAspectRatio="xMidYMid meet">
<metadata>
Created by potrace 1.10, written by Peter Selinger 2001-2011
</metadata>
<g transform="translate(0.000000,336.000000) scale(0.100000,-0.100000)"
fill="#000000" stroke="none">
<path d="M823 3176 c-7 -12 -200 -238 -550 -642 l-133 -154 0 -742 1 -743 317
-377 317 -377 730 0 730 0 82 92 c44 51 187 209 317 352 l236 260 0 223 c0
122 1 225 3 230 1 4 -90 8 -203 9 -160 1 -200 -1 -180 -10 14 -6 27 -12 29
-14 3 -2 -13 -21 -34 -43 l-39 -40 159 0 160 0 -2 -155 -2 -156 -219 -242
c-121 -133 -250 -277 -288 -319 l-69 -77 -680 0 -680 0 -287 342 -287 342 -1
704 0 703 78 92 c42 50 185 216 316 369 l239 277 632 0 631 0 287 -357 287
-357 0 -128 0 -128 -160 -2 -160 -3 37 -52 38 -52 178 0 177 -1 0 201 0 200
-248 307 c-136 169 -279 346 -317 395 l-69 87 -683 0 c-570 0 -683 -2 -690
-14z m1354 -39 c19 -11 100 -107 228 -271 22 -28 65 -82 97 -121 31 -38 108
-135 172 -214 l116 -144 -2 -171 -3 -171 -139 -3 c-101 -2 -142 1 -154 10 -13
11 6 14 107 18 162 7 161 5 161 174 0 146 12 123 -195 378 -77 94 -149 184
-160 199 -65 87 -228 280 -245 289 -12 6 -238 10 -648 10 -602 0 -630 -1 -653
-19 -27 -21 -115 -121 -346 -392 -87 -102 -186 -218 -221 -258 -35 -40 -67
-84 -73 -98 -12 -32 -12 -1394 0 -1425 5 -13 60 -84 123 -159 203 -243 263
-314 268 -319 3 -3 40 -46 83 -96 42 -51 90 -104 108 -118 l31 -26 671 0 c622
0 674 1 700 18 25 16 433 459 548 595 l49 58 0 156 c0 147 -1 158 -22 180 -20
21 -30 23 -125 23 -62 0 -103 4 -103 10 0 12 -7 11 140 14 63 1 121 0 128 -2
9 -3 12 -53 12 -203 l0 -199 -37 -42 c-142 -160 -539 -597 -559 -615 l-25 -23
-705 0 -705 0 -26 27 c-14 16 -70 82 -126 148 -167 199 -200 238 -237 281 -19
22 -42 49 -50 60 -8 10 -52 63 -98 117 l-82 97 0 721 c0 527 3 726 12 742 6
12 70 89 141 172 71 82 153 177 181 210 28 33 67 78 87 100 20 22 82 94 138
160 82 95 109 121 134 126 18 3 313 6 657 7 477 1 630 -1 647 -11z"/>
<path d="M899 2987 c-10 -12 -143 -168 -298 -347 l-280 -325 -1 -673 0 -673
162 -192 c88 -106 211 -252 272 -324 l111 -133 640 0 641 0 272 300 272 299 0
106 0 105 -220 0 -220 0 0 -150 0 -150 -204 0 c-175 0 -205 -2 -217 -16 -34
-41 -237 -155 -318 -179 -20 -6 -23 -4 -18 9 4 9 14 45 22 79 9 34 20 73 25
85 8 18 7 23 -2 20 -7 -3 -20 -32 -28 -66 -8 -34 -17 -62 -20 -62 -3 0 -22 30
-43 65 l-38 65 -319 0 -320 0 0 418 0 417 -33 19 c-117 68 -217 96 -344 96
-77 0 -75 9 9 56 48 26 61 28 148 28 67 -1 113 -7 158 -22 91 -29 72 -4 -24
32 -71 26 -91 29 -201 30 l-122 1 27 22 c62 51 164 82 295 90 l87 6 0 223 0
224 735 0 735 0 0 -114 0 -114 33 -25 c33 -25 39 -26 205 -29 l172 -3 0 75 0
76 -271 337 -271 337 -596 0 -597 -1 -16 -22z m1202 -30 c14 -11 79 -91 415
-509 90 -112 94 -119 94 -166 0 -36 -4 -52 -16 -56 -9 -3 -73 -6 -143 -6 -170
0 -168 -2 -173 134 -5 164 89 146 -768 146 -611 0 -729 -2 -746 -14 -17 -13
-19 -31 -24 -217 -4 -166 -8 -203 -20 -210 -8 -4 -67 -17 -130 -28 -73 -14
-136 -32 -172 -50 l-56 -29 -2 177 -1 176 108 126 c59 69 188 218 286 332
l178 207 577 0 c438 -1 581 -4 593 -13z m-1508 -1232 c68 -23 135 -66 141 -90
3 -11 6 -194 6 -407 0 -375 1 -389 20 -408 19 -19 33 -20 314 -20 162 0 301
-3 310 -6 18 -7 86 -114 86 -136 0 -8 9 -23 20 -33 19 -17 22 -17 67 0 68 25
187 90 251 136 l55 39 192 0 c241 0 227 -9 235 163 l5 122 169 3 c116 2 173
-1 182 -9 17 -14 19 -111 2 -142 -9 -19 -135 -162 -278 -317 -23 -25 -82 -91
-133 -148 -50 -56 -100 -105 -112 -108 -11 -2 -296 -3 -634 -2 l-615 3 -64 75
c-35 41 -76 89 -91 105 -14 17 -47 55 -71 85 -25 30 -49 60 -55 66 -11 12 -25
29 -100 119 -27 33 -69 82 -92 109 l-43 48 0 383 c0 297 3 385 13 389 23 11
172 -2 220 -19z"/>
<path d="M846 2343 c2 -45 5 -50 50 -81 l49 -32 3 25 3 25 523 0 523 0 7 50
c4 28 11 50 16 50 4 0 39 -20 76 -45 36 -25 68 -45 70 -45 2 0 4 23 4 50 l0
50 -663 0 -663 0 2 -47z m1114 -8 c0 -13 -65 -15 -498 -15 -438 0 -500 -2
-520 -16 -18 -12 -26 -13 -37 -4 -17 14 -19 32 -6 46 6 5 213 8 535 6 457 -2
526 -4 526 -17z"/>
<path d="M2020 2313 c0 -56 17 -108 48 -144 36 -44 140 -119 163 -119 23 0 25
-16 3 -24 -29 -11 -57 -6 -110 21 l-54 27 -42 -31 c-119 -86 -129 -272 -21
-380 58 -59 113 -83 189 -83 71 0 116 13 162 48 25 18 37 21 45 13 8 -8 3 -19
-17 -40 -36 -38 -77 -57 -139 -66 l-47 -7 38 -42 c36 -39 118 -193 108 -203
-2 -3 -14 0 -25 7 -28 15 -27 -1 3 -29 13 -12 32 -40 41 -62 l18 -40 52 58 53
58 -32 18 c-81 49 -100 104 -51 152 38 39 70 33 128 -25 28 -28 51 -49 51 -48
1 2 14 20 30 41 l27 38 -35 49 -35 49 26 41 c15 22 29 40 32 40 3 0 14 -11 23
-24 17 -23 17 -25 -3 -50 -17 -21 -18 -28 -7 -46 7 -11 16 -20 19 -20 3 0 22
24 41 53 l36 53 -75 110 c-40 60 -80 115 -87 122 -13 13 -71 7 -163 -15 -21
-5 -22 -2 -17 26 5 24 0 41 -25 79 -50 78 -37 84 38 18 44 -40 117 -74 129
-61 3 2 -39 63 -93 135 -81 109 -110 139 -169 179 -39 26 -109 73 -155 104
-46 31 -87 57 -92 57 -5 0 -9 -17 -9 -37z m178 -116 c87 -59 212 -175 212
-197 0 -4 -14 -5 -30 -2 -59 8 -77 -39 -40 -100 11 -18 20 -45 20 -59 0 -49
28 -61 119 -54 l80 7 40 -62 41 -62 -33 -22 c-17 -12 -41 -38 -52 -59 l-20
-37 23 -42 c33 -64 28 -74 -20 -39 -59 44 -114 43 -157 -1 -17 -17 -31 -35
-31 -40 0 -19 -20 -5 -40 27 -21 35 -20 55 4 55 22 0 95 58 111 89 14 28 14
31 -8 57 l-23 26 -67 -31 c-109 -51 -200 -41 -282 30 -90 79 -100 217 -23 304
33 39 57 43 111 20 49 -20 90 -19 118 3 30 25 21 44 -37 84 -80 55 -116 91
-135 132 -18 41 -17 61 4 49 7 -3 58 -38 115 -76z m222 -938 c0 -16 -31 -23
-40 -9 -14 23 -1 41 21 29 10 -5 19 -14 19 -20z"/>
<path d="M850 2261 c0 -19 46 -103 79 -145 95 -119 337 -221 608 -256 l72 -9
75 47 c42 26 74 52 72 57 -7 25 -56 35 -170 35 -129 0 -302 18 -289 30 12 11
416 34 459 25 22 -4 51 -14 66 -23 26 -15 28 -15 68 22 23 21 65 48 92 61 l50
23 -98 33 c-85 27 -113 32 -199 32 -55 -1 -167 -11 -250 -23 -164 -23 -338
-27 -412 -9 -55 14 -178 71 -205 96 -11 10 -18 12 -18 4z m157 -120 c103 -40
241 -43 475 -10 84 12 196 22 248 22 91 0 180 -15 180 -32 0 -4 -13 -20 -30
-36 -29 -28 -30 -28 -72 -14 -51 17 -232 16 -383 -1 -78 -8 -104 -15 -122 -32
-19 -17 -20 -24 -10 -36 26 -32 80 -44 229 -49 81 -3 148 -9 148 -13 0 -20
-53 -40 -107 -40 -194 1 -510 124 -607 238 -23 27 -11 28 51 3z"/>
<path d="M844 2164 c3 -26 6 -68 6 -94 0 -44 2 -48 29 -53 16 -3 40 -9 54 -12
24 -6 25 -5 18 27 -4 18 -19 45 -32 60 -14 14 -35 47 -47 72 -13 25 -26 46
-29 46 -3 0 -3 -21 1 -46z"/>
<path d="M2062 2107 c-2 -18 1 -26 8 -22 6 4 34 -5 61 -20 28 -14 52 -25 53
-23 2 2 -25 24 -59 49 l-61 45 -2 -29z"/>
<path d="M1908 2008 c-69 -69 -150 -205 -189 -318 -27 -79 -29 -228 -4 -360
18 -97 45 -285 45 -315 0 -11 -5 -27 -10 -35 -20 -33 -37 15 -59 170 -13 85
-26 159 -30 163 -4 4 -11 -32 -14 -81 -9 -119 -37 -257 -86 -426 -23 -76 -41
-141 -41 -142 0 -8 112 46 181 87 94 54 157 113 183 169 19 40 21 63 21 214 0
119 3 170 12 173 20 7 35 -66 37 -178 0 -60 2 -109 3 -109 2 0 14 22 27 48 32
63 75 224 92 342 21 144 21 144 -30 174 -161 94 -201 296 -89 443 48 62 23 53
-49 -19z m-10 -324 c12 -23 51 -69 88 -102 l67 -60 -7 -44 c-3 -23 -11 -79
-16 -122 -6 -44 -17 -91 -25 -105 l-14 -26 -7 32 c-3 17 -19 43 -34 58 -23 22
-32 25 -48 16 -31 -17 -35 -37 -33 -199 3 -174 -6 -206 -76 -274 -48 -47 -194
-131 -206 -119 -6 6 -3 29 6 58 9 26 26 85 38 131 22 85 35 106 46 75 8 -23
44 -63 57 -63 5 0 20 10 33 22 32 29 31 106 -3 302 -45 256 -38 369 32 509 44
86 46 87 64 16 9 -35 26 -83 38 -105z"/>
<path d="M640 1993 c-60 -9 -167 -37 -190 -49 -23 -12 -20 -13 41 -14 81 0
198 -29 276 -68 91 -46 211 -142 178 -142 -2 0 -33 15 -67 34 -131 72 -312
108 -413 81 -83 -22 -92 -35 -25 -35 150 -1 338 -89 482 -228 l47 -45 113 43
c137 52 231 98 224 109 -3 4 -25 11 -48 14 -110 16 -288 95 -358 159 -32 30
-45 36 -51 27 -6 -10 -20 -7 -66 14 -32 14 -76 34 -98 44 l-40 17 73 9 c92 12
190 -6 347 -63 61 -22 154 -54 208 -71 53 -17 97 -35 97 -40 0 -13 -70 -11
-147 5 -79 17 -197 58 -265 92 -26 13 -58 24 -70 24 l-23 -1 25 -20 c96 -80
364 -160 493 -146 49 5 147 43 147 57 0 3 -33 12 -72 18 -40 7 -152 40 -248
73 -268 94 -328 108 -445 107 -55 0 -111 -2 -125 -5z m160 -243 c40 -17 78
-34 84 -39 30 -22 48 -20 75 8 l27 28 49 -24 c27 -13 66 -28 85 -33 48 -14 67
-27 55 -39 -12 -12 -171 -71 -191 -71 -8 0 -45 26 -82 58 -37 31 -95 73 -130
92 -56 32 -76 50 -53 50 4 0 41 -14 81 -30z"/>
<path d="M1769 1916 c-26 -25 -285 -193 -390 -254 -116 -66 -212 -110 -315
-144 l-69 -22 39 -81 c39 -81 141 -239 174 -268 17 -16 21 -12 70 64 29 45 58
79 65 76 25 -8 17 -41 -27 -113 -25 -41 -46 -77 -46 -80 0 -3 20 -31 44 -62
24 -32 61 -88 81 -127 51 -95 87 -156 90 -153 5 5 92 359 109 443 9 44 25 141
36 216 10 75 22 144 26 155 3 10 -26 -14 -66 -54 -58 -59 -74 -71 -85 -62 -12
10 -12 17 -3 34 18 33 116 152 138 167 18 12 154 269 147 276 -2 1 -10 -4 -18
-11z m-99 -136 c0 -24 -35 -78 -85 -130 -53 -56 -125 -154 -125 -172 0 -18 21
-48 41 -58 16 -9 27 -7 55 9 l34 20 0 -27 c0 -89 -94 -530 -118 -554 -6 -6
-23 15 -42 49 -18 32 -51 85 -73 117 l-40 59 43 83 c42 81 42 84 26 109 -34
52 -76 43 -123 -27 -16 -23 -36 -44 -45 -46 -27 -5 -169 231 -154 257 3 4 34
19 68 31 99 37 287 135 410 216 116 76 128 82 128 64z"/>
<path d="M845 1260 l0 -350 264 0 263 0 -16 25 c-9 14 -23 36 -32 50 l-16 25
-179 0 -179 0 0 253 0 253 -48 47 c-26 26 -50 47 -52 47 -3 0 -5 -157 -5 -350z
m67 4 l3 -246 28 -24 c27 -23 33 -24 188 -24 99 0 159 -4 159 -10 0 -16 -400
-13 -401 3 0 11 0 504 1 535 0 6 4 12 10 12 5 0 10 -99 12 -246z"/>
<path d="M2076 1288 c-3 -13 -6 -80 -6 -150 l0 -128 -50 0 c-39 0 -53 -4 -62
-20 -7 -11 -17 -20 -21 -20 -5 0 -5 9 -2 20 4 11 2 20 -4 20 -6 0 -11 -14 -11
-31 0 -17 -5 -39 -10 -50 -10 -18 -6 -19 130 -19 l140 0 0 145 0 145 80 0 c44
0 80 4 80 8 0 5 -14 21 -31 38 -18 17 -28 36 -25 46 4 16 -5 18 -99 18 -98 0
-103 -1 -109 -22z m151 -30 l28 -11 -37 -7 c-70 -13 -77 -27 -80 -164 l-3
-121 -78 -3 c-53 -2 -77 1 -72 8 3 5 22 10 41 10 24 0 43 8 59 25 24 23 25 30
25 144 0 105 2 120 18 124 33 9 71 7 99 -5z"/>
<path d="M1561 964 c-7 -26 -9 -49 -6 -52 8 -9 14 1 29 51 11 38 11 47 1 47
-7 0 -18 -21 -24 -46z"/>
</g>
</svg>
